<svg xmlns="http://www.w3.org/2000/svg" width="1200" height="280" viewBox="0 0 1200 280">
  <defs>
    <style>.mono{font-family:'SFMono-Regular',Consolas,Menlo,monospace;}</style>
    <linearGradient id="vgrad" x1="0" y1="0" x2="0" y2="1">
      <stop offset="0%" stop-color="#0d1012"/>
      <stop offset="100%" stop-color="#0a0c0e"/>
    </linearGradient>
    <linearGradient id="scan" x1="0" y1="0" x2="0" y2="1">
      <stop offset="0%" stop-color="#4dd4e8" stop-opacity="0"/>
      <stop offset="50%" stop-color="#4dd4e8" stop-opacity="0.07"/>
      <stop offset="100%" stop-color="#4dd4e8" stop-opacity="0"/>
    </linearGradient>
    <clipPath id="revealName">
      <rect x="0" y="0" width="0" height="50">
        <animate attributeName="width" values="0;430;430;430" keyTimes="0;0.35;0.9;1"
                  dur="6s" repeatCount="indefinite"/>
      </rect>
    </clipPath>
    <clipPath id="revealTag">
      <rect x="0" y="0" width="0" height="30">
        <animate attributeName="width" values="0;0;620;620" keyTimes="0;0.4;0.75;1"
                  dur="6s" repeatCount="indefinite"/>
      </rect>
    </clipPath>
  </defs>

  <rect width="1200" height="280" rx="12" fill="url(#vgrad)"/>

  <g stroke="#151a1d" stroke-width="1">
    <line x1="0" y1="70" x2="1200" y2="70"/>
    <line x1="0" y1="140" x2="1200" y2="140"/>
    <line x1="0" y1="210" x2="1200" y2="210"/>
  </g>

  <!-- terminal chrome -->
  <rect x="0" y="0" width="1200" height="36" fill="#111417" rx="12"/>
  <rect x="0" y="24" width="1200" height="12" fill="#111417"/>
  <circle cx="26" cy="18" r="6" fill="#3a3f44"/>
  <circle cx="48" cy="18" r="6" fill="#3a3f44"/>
  <circle cx="70" cy="18" r="6" fill="#3a3f44"/>
  <text x="600" y="23" text-anchor="middle" class="mono" font-size="13" fill="#5a6169">aditya@soc — zsh — 120x28</text>

  <!-- scanline sweep, one subtle pass -->
  <rect x="0" y="36" width="1200" height="60" fill="url(#scan)">
    <animate attributeName="y" values="36;220;36" dur="5s" repeatCount="indefinite"/>
  </rect>

  <text x="40" y="95" class="mono" font-size="22" fill="#4dd4e8">aditya@soc</text>
  <text x="204" y="95" class="mono" font-size="22" fill="#5a6169">:~$ whoami</text>

  <g clip-path="url(#revealName)">
    <text x="40" y="140" class="mono" font-size="34" font-weight="600" fill="#eef2f4">Aditya Goswami</text>
  </g>

  <g clip-path="url(#revealTag)">
    <text x="40" y="180" class="mono" font-size="18" fill="#9aa3ab">Security Operations Engineer — detection, triage, response.</text>
    <text x="40" y="205" class="mono" font-size="18" fill="#9aa3ab">I read logs the way other people read headlines.</text>
  </g>

  <text x="40" y="240" class="mono" font-size="22" fill="#4dd4e8">$</text>
  <rect x="58" y="222" width="12" height="24" fill="#4dd4e8">
    <animate attributeName="opacity" values="1;1;0;0;1" keyTimes="0;0.4;0.5;0.9;1" dur="1.2s" repeatCount="indefinite"/>
  </rect>
</svg>
